<svg xmlns="http://www.w3.org/2000/svg" viewBox="0 0 74.91 68.36"><title>logo-icon</title><path d="M66,8.63H54.63V2.88a2.88,2.88,0,1,0-5.76,0V8.63H26V2.88a2.88,2.88,0,0,0-5.76,0V8.63H8.9A8.92,8.92,0,0,0,0,17.54V59.46a8.91,8.91,0,0,0,8.9,8.9H66a8.91,8.91,0,0,0,8.9-8.9V17.54A8.92,8.92,0,0,0,66,8.63Zm3.14,50.83A3.15,3.15,0,0,1,66,62.6H8.9a3.15,3.15,0,0,1-3.14-3.14V17.54A3.15,3.15,0,0,1,8.9,14.39H20.28v5.75a2.88,2.88,0,0,0,5.76,0V14.39H48.87v5.75a2.88,2.88,0,0,0,5.76,0V14.39H66a3.15,3.15,0,0,1,3.14,3.15Z"/><path d="M56.59,33.8A2.88,2.88,0,0,0,52.69,35a17.25,17.25,0,0,1-30.47,0,2.88,2.88,0,1,0-5.08,2.71,23,23,0,0,0,40.64,0A2.89,2.89,0,0,0,56.59,33.8Z"/></svg>